<svg version="1.1" xmlns="http://www.w3.org/2000/svg" viewBox="0 0 160.800048828125 151.19996643066406" width="160.800048828125" height="151.19996643066406">
  <!-- svg-source:unidraw -->
  
  <defs><style>@font-face {  font-family: "T-Bank Sans";  font-display: swap;  font-style: normal;  font-weight: normal;  src: url("https://unidraw.io/app/persistent/fonts/tbank-sans/tbank-sans.woff2") format("woff2");}@font-face {  font-family: "T-Bank Sans";  font-display: swap;  font-style: normal;  font-weight: bold;  src: url("https://unidraw.io/app/persistent/fonts/tbank-sans/tbank-sans-medium.woff2") format("woff2");}@font-face {  font-family: "T-Bank Sans";  font-display: swap;  font-style: normal;  font-weight: bold;  src: url("https://unidraw.io/app/persistent/fonts/tbank-sans/tbank-sans-bold.woff2") format("woff2");}@font-face {  font-family: "Caveat";  font-weight: normal;  src: url("https://unidraw.io/app/persistent/fonts/caveat/caveat-regular.ttf") format("truetype");  font-display: swap;}@font-face {  font-family: "Fira Mono";  font-weight: normal;  src: url("https://unidraw.io/app/persistent/fonts/fira-mono/fira-mono-regular.ttf") format("truetype");  font-display: swap;}@font-face {  font-family: "Fira Mono";  font-weight: bold;  src: url("https://unidraw.io/app/persistent/fonts/fira-mono/fira-mono-medium.ttf") format("truetype");  font-display: swap;}@font-face {  font-family: "Fira Mono";  font-weight: bold;  src: url("https://unidraw.io/app/persistent/fonts/fira-mono/fira-mono-bold.ttf") format("truetype");  font-display: swap;}@font-face {  font-family:"Neue Haas Unica";  font-style: normal;  font-weight: 400;  font-display: swap;  src: url('https://unidraw.io/app/persistent/fonts/neue-haas-unica/NeueHaasUnicaW1G-Regular.woff2') format('woff2');}@font-face {  font-family: "Neue Haas Unica";  font-style: normal;  font-weight: 500;  font-display: swap;  src: url('https://unidraw.io/app/persistent/fonts/neue-haas-unica/NeueHaasUnicaW1G-Medium.woff2') format('woff2');}@font-face {  font-family: "Neue Haas Unica";  font-style: normal;  font-weight: 600;  font-display: swap;  src: url('https://unidraw.io/app/persistent/fonts/neue-haas-unica/NeueHaasUnicaW1G-Bold.woff2') format('woff2');}@font-face {  font-family: "EB Garamond";  src: url("https://unidraw.io/app/persistent/fonts/eb-garamond/eb-garamond-regular.ttf")  format("truetype");  font-display: swap;}</style></defs>
  <g stroke-linecap="round" transform="translate(10 10) rotate(0 70.4000244140625 65.59998321533203)"><path d="M140.8 65.6 C140.8 68.05, 140.65 70.51, 140.36 72.94 C140.06 75.38, 139.62 77.81, 139.03 80.2 C138.45 82.58, 137.72 84.96, 136.85 87.27 C135.98 89.58, 134.97 91.86, 133.83 94.06 C132.69 96.27, 131.41 98.43, 130.01 100.5 C128.61 102.57, 127.08 104.59, 125.44 106.5 C123.8 108.42, 122.04 110.25, 120.18 111.99 C118.32 113.72, 116.35 115.36, 114.29 116.89 C112.24 118.41, 110.08 119.84, 107.86 121.15 C105.63 122.45, 103.31 123.64, 100.95 124.7 C98.58 125.77, 96.13 126.71, 93.65 127.52 C91.17 128.33, 88.63 129.01, 86.07 129.56 C83.5 130.1, 80.89 130.51, 78.28 130.79 C75.67 131.06, 73.03 131.2, 70.4 131.2 C67.77 131.2, 65.13 131.06, 62.52 130.79 C59.91 130.51, 57.3 130.1, 54.73 129.56 C52.17 129.01, 49.63 128.33, 47.15 127.52 C44.67 126.71, 42.22 125.77, 39.85 124.7 C37.49 123.64, 35.17 122.45, 32.94 121.15 C30.72 119.84, 28.56 118.41, 26.51 116.89 C24.45 115.36, 22.48 113.72, 20.62 111.99 C18.76 110.25, 17 108.42, 15.36 106.5 C13.72 104.59, 12.19 102.57, 10.79 100.5 C9.39 98.43, 8.11 96.27, 6.97 94.06 C5.83 91.86, 4.82 89.58, 3.95 87.27 C3.08 84.96, 2.35 82.58, 1.77 80.2 C1.18 77.81, 0.74 75.38, 0.44 72.94 C0.15 70.51, 0 68.05, 0 65.6 C0 63.15, 0.15 60.69, 0.44 58.26 C0.74 55.82, 1.18 53.39, 1.77 51 C2.35 48.62, 3.08 46.24, 3.95 43.93 C4.82 41.62, 5.83 39.34, 6.97 37.14 C8.11 34.93, 9.39 32.77, 10.79 30.7 C12.19 28.63, 13.72 26.61, 15.36 24.7 C17 22.78, 18.76 20.94, 20.62 19.21 C22.48 17.48, 24.45 15.84, 26.51 14.31 C28.56 12.79, 30.72 11.36, 32.94 10.05 C35.17 8.75, 37.49 7.56, 39.85 6.5 C42.22 5.43, 44.67 4.49, 47.15 3.68 C49.63 2.87, 52.17 2.19, 54.73 1.64 C57.3 1.1, 59.91 0.69, 62.52 0.41 C65.13 0.14, 67.77 0, 70.4 0 C73.03 0, 75.67 0.14, 78.28 0.41 C80.89 0.69, 83.5 1.1, 86.07 1.64 C88.63 2.19, 91.17 2.87, 93.65 3.68 C96.13 4.49, 98.58 5.43, 100.95 6.5 C103.31 7.56, 105.63 8.75, 107.86 10.05 C110.08 11.36, 112.24 12.79, 114.29 14.31 C116.35 15.84, 118.32 17.48, 120.18 19.21 C122.04 20.94, 123.8 22.78, 125.44 24.7 C127.08 26.61, 128.61 28.63, 130.01 30.7 C131.41 32.77, 132.69 34.93, 133.83 37.14 C134.97 39.34, 135.98 41.62, 136.85 43.93 C137.72 46.24, 138.45 48.62, 139.03 51 C139.62 53.39, 140.06 55.82, 140.36 58.26 C140.65 60.69, 140.73 64.38, 140.8 65.6 C140.87 66.82, 140.87 64.38, 140.8 65.6" stroke="none" stroke-width="0" fill="transparent"></path><path d="M140.8 65.6 C140.8 68.05, 140.65 70.51, 140.36 72.94 C140.06 75.38, 139.62 77.81, 139.03 80.2 C138.45 82.58, 137.72 84.96, 136.85 87.27 C135.98 89.58, 134.97 91.86, 133.83 94.06 C132.69 96.27, 131.41 98.43, 130.01 100.5 C128.61 102.57, 127.08 104.59, 125.44 106.5 C123.8 108.42, 122.04 110.25, 120.18 111.99 C118.32 113.72, 116.35 115.36, 114.29 116.89 C112.24 118.41, 110.08 119.84, 107.86 121.15 C105.63 122.45, 103.31 123.64, 100.95 124.7 C98.58 125.77, 96.13 126.71, 93.65 127.52 C91.17 128.33, 88.63 129.01, 86.07 129.56 C83.5 130.1, 80.89 130.51, 78.28 130.79 C75.67 131.06, 73.03 131.2, 70.4 131.2 C67.77 131.2, 65.13 131.06, 62.52 130.79 C59.91 130.51, 57.3 130.1, 54.73 129.56 C52.17 129.01, 49.63 128.33, 47.15 127.52 C44.67 126.71, 42.22 125.77, 39.85 124.7 C37.49 123.64, 35.17 122.45, 32.94 121.15 C30.72 119.84, 28.56 118.41, 26.51 116.89 C24.45 115.36, 22.48 113.72, 20.62 111.99 C18.76 110.25, 17 108.42, 15.36 106.5 C13.72 104.59, 12.19 102.57, 10.79 100.5 C9.39 98.43, 8.11 96.27, 6.97 94.06 C5.83 91.86, 4.82 89.58, 3.95 87.27 C3.08 84.96, 2.35 82.58, 1.77 80.2 C1.18 77.81, 0.74 75.38, 0.44 72.94 C0.15 70.51, 0 68.05, 0 65.6 C0 63.15, 0.15 60.69, 0.44 58.26 C0.74 55.82, 1.18 53.39, 1.77 51 C2.35 48.62, 3.08 46.24, 3.95 43.93 C4.82 41.62, 5.83 39.34, 6.97 37.14 C8.11 34.93, 9.39 32.77, 10.79 30.7 C12.19 28.63, 13.72 26.61, 15.36 24.7 C17 22.78, 18.76 20.94, 20.62 19.21 C22.48 17.48, 24.45 15.84, 26.51 14.31 C28.56 12.79, 30.72 11.36, 32.94 10.05 C35.17 8.75, 37.49 7.56, 39.85 6.5 C42.22 5.43, 44.67 4.49, 47.15 3.68 C49.63 2.87, 52.17 2.19, 54.73 1.64 C57.3 1.1, 59.91 0.69, 62.52 0.41 C65.13 0.14, 67.77 0, 70.4 0 C73.03 0, 75.67 0.14, 78.28 0.41 C80.89 0.69, 83.5 1.1, 86.07 1.64 C88.63 2.19, 91.17 2.87, 93.65 3.68 C96.13 4.49, 98.58 5.43, 100.95 6.5 C103.31 7.56, 105.63 8.75, 107.86 10.05 C110.08 11.36, 112.24 12.79, 114.29 14.31 C116.35 15.84, 118.32 17.48, 120.18 19.21 C122.04 20.94, 123.8 22.78, 125.44 24.7 C127.08 26.61, 128.61 28.63, 130.01 30.7 C131.41 32.77, 132.69 34.93, 133.83 37.14 C134.97 39.34, 135.98 41.62, 136.85 43.93 C137.72 46.24, 138.45 48.62, 139.03 51 C139.62 53.39, 140.06 55.82, 140.36 58.26 C140.65 60.69, 140.73 64.38, 140.8 65.6 C140.87 66.82, 140.87 64.38, 140.8 65.6" stroke="#101010" stroke-width="1" fill="none"></path></g><g transform="translate(10 10) rotate(0 70.4000244140625 65.59998321533203)"><text x="70.4000244140625" y="38.59998321533203" font-family="Neue Haas Unica, Segoe UI Emoji" font-size="20px" fill="#f80606" text-anchor="middle" style="white-space: pre;" direction="ltr">BEST
</text><text x="70.4000244140625" y="60.59998321533203" font-family="Neue Haas Unica, Segoe UI Emoji" font-size="20px" fill="#f80606" text-anchor="middle" style="white-space: pre;" direction="ltr">LOGO
</text><text x="70.4000244140625" y="82.59998321533203" font-family="Neue Haas Unica, Segoe UI Emoji" font-size="20px" fill="#f80606" text-anchor="middle" style="white-space: pre;" direction="ltr">IN THE
</text><text x="70.4000244140625" y="104.59998321533203" font-family="Neue Haas Unica, Segoe UI Emoji" font-size="20px" fill="#f80606" text-anchor="middle" style="white-space: pre;" direction="ltr">WORLD</text></g></svg>